<svg xmlns="http://www.w3.org/2000/svg" xml:space="preserve" width="1000" height="301" style="shape-rendering:geometricPrecision;text-rendering:geometricPrecision;image-rendering:optimizeQuality;fill-rule:evenodd;clip-rule:evenodd" viewBox="0 0 225.107 67.871"><defs><style>.fil0{fill:#3b9702;fill-rule:nonzero}</style></defs><g id="Слой_x0020_1"><path d="M76.204 40.838q-2.528 0-4.56-.813-2.033-.813-3.507-2.288a10.05 10.05 0 0 1-2.258-3.461q-.782-1.988-.782-4.335t.843-4.335a10.5 10.5 0 0 1 2.363-3.462q1.52-1.475 3.612-2.287 2.092-.813 4.59-.813 1.716 0 3.266.451 1.55.452 2.83 1.234 1.28.783 2.122 1.777l-3.16 3.311a9 9 0 0 0-2.333-1.611q-1.25-.587-2.815-.587-1.295 0-2.393.467a5.8 5.8 0 0 0-1.927 1.324 6 6 0 0 0-1.279 2.017 6.9 6.9 0 0 0-.451 2.514q0 1.355.481 2.498a6.2 6.2 0 0 0 3.342 3.342 6.3 6.3 0 0 0 2.468.481q.933 0 1.731-.286a4.8 4.8 0 0 0 1.415-.782 3.6 3.6 0 0 0 .963-1.174 3.16 3.16 0 0 0 .346-1.46v-.783l.662 1.023h-5.749v-4.063h9.903q.06.33.091.903a46 46 0 0 1 .06 1.926q0 2.047-.738 3.748a8.6 8.6 0 0 1-2.077 2.935 9.5 9.5 0 0 1-3.145 1.912q-1.806.677-3.914.677m11.806-.301V19.465h9.543q2.047 0 3.672.873a6.7 6.7 0 0 1 2.574 2.393q.948 1.521.948 3.477 0 1.988-.948 3.552a6.95 6.95 0 0 1-2.574 2.484q-1.625.918-3.672.918h-4.636v7.375zm11.71 0-5.358-9.543 5.268-.752 5.96 10.325zm-6.803-11.379h4.184q.782 0 1.37-.346.586-.347.903-.948.316-.603.316-1.385 0-.812-.376-1.415a2.6 2.6 0 0 0-1.054-.948q-.677-.346-1.61-.346h-3.733zm14.365 11.379V19.465h14.69v4.395h-9.663v12.282h9.994v4.395zm2.438-8.61v-4.214h10.927v4.214zm15.057 8.61V19.465h14.69v4.395h-9.663v12.282h9.994v4.395zm2.438-8.61v-4.214h10.928v4.214zm15.057 8.61V19.465h4.606l11.077 15.021-.993-.12q-.21-1.686-.361-3.146a41 41 0 0 1-.196-3.055q-.045-1.596-.045-3.673v-5.027h4.997v21.072h-4.666l-11.499-15.473 1.475.211q.211 1.836.331 3.04t.181 2.062q.06.858.09 1.596.03.737.03 1.64v6.924zm21.349-6.442V29.67h10.355v4.425zm9.939 6.442 8.338-21.072h4.365l8.278 21.072h-5.177L185.36 29.85q-.21-.631-.466-1.354a39 39 0 0 1-.497-1.505q-.241-.783-.452-1.505-.21-.723-.361-1.355l.873-.03q-.18.752-.391 1.475a41 41 0 0 1-.452 1.445 62 62 0 0 1-.496 1.43q-.257.707-.527 1.46l-3.974 10.626zm3.974-4.034 1.625-3.913h9.633l1.625 3.913zm17.706 4.034V19.465h9.121q1.986 0 3.552.903a6.66 6.66 0 0 1 2.468 2.454q.903 1.55.903 3.537 0 2.016-.903 3.642a6.7 6.7 0 0 1-2.468 2.559q-1.566.933-3.552.933h-3.974v7.044zm5.087-11.59h3.341q.663 0 1.189-.316a2.4 2.4 0 0 0 .858-.888 2.53 2.53 0 0 0 .331-1.294q0-.753-.331-1.294a2.36 2.36 0 0 0-.858-.843 2.35 2.35 0 0 0-1.189-.301h-3.341zm12.528 11.59v-4.335h3.553V23.8h-3.553v-4.335h12.252V23.8h-3.552v12.402h3.552v4.335z" class="fil0"/><path id="rect915" d="M5.58.003a5.69 5.69 0 0 0-3.792 1.578A5.8 5.8 0 0 0 .011 5.46C-.01 6.099.007 6.739.002 7.378V62c.021 1.406.517 2.792 1.348 3.915.642.861 1.526 1.583 2.575 1.85a3.53 3.53 0 0 0 2.028-.094q22.698-6.946 45.395-13.895c1.274-.403 2.533-.94 3.584-1.789.805-.648 1.455-1.52 1.74-2.529.171-.569.208-1.167.195-1.759q0-20.999-.001-41.998a5.8 5.8 0 0 0-1.561-3.892A5.69 5.69 0 0 0 51.47.011c-.632-.021-1.265-.004-1.897-.01q-21.96 0-43.922.001zm31.886 34.62-8.316-.001v-6.654h16.217q.098.542.147 1.478a72 72 0 0 1 .099 3.155q0 3.352-1.208 6.137a14.1 14.1 0 0 1-3.401 4.806q-2.193 2.021-5.151 3.13-2.957 1.11-6.408 1.109-4.14 0-7.467-1.331t-5.743-3.746a16.4 16.4 0 0 1-3.696-5.669q-1.282-3.252-1.282-7.097t1.38-7.099a17.15 17.15 0 0 1 3.869-5.668q2.49-2.415 5.916-3.746 3.425-1.33 7.516-1.331 2.81 0 5.348.739a19 19 0 0 1 4.634 2.021q2.095 1.282 3.475 2.909l-5.176 5.422q-1.774-1.677-3.82-2.637-2.045-.962-4.608-.962-2.12 0-3.919.764a9.5 9.5 0 0 0-3.155 2.169 9.9 9.9 0 0 0-2.095 3.302q-.74 1.899-.739 4.117 0 2.217.788 4.091a10.2 10.2 0 0 0 2.194 3.278 10.2 10.2 0 0 0 3.278 2.193q1.873.789 4.042.789a8.3 8.3 0 0 0 2.834-.468 8 8 0 0 0 2.317-1.282 5.9 5.9 0 0 0 1.577-1.923 5.1 5.1 0 0 0 .553-1.995" class="fil0"/></g></svg>